<svg width="87" height="87" viewBox="0 0 87 87" fill="none" xmlns="http://www.w3.org/2000/svg">
<circle cx="43.5" cy="43.5" r="43.5" fill="#F9EBF0"/>
<path d="M39.2064 5.17981C37.6854 5.58008 36.5646 6.49269 35.8121 7.90164C35.4599 8.55809 35.4599 8.65415 35.4118 16.9958L35.3638 25.4495H23.6119C15.6225 25.4495 11.5878 25.5135 11.0114 25.6256C9.07407 26.0259 7.26485 27.4668 6.43229 29.26L6 30.1727V51.1468V72.1209L6.49633 73.1616C7.12076 74.4905 8.19348 75.5633 9.57041 76.2357L10.6431 76.7641L30.3364 76.8441C45.0183 76.9082 50.1097 76.9722 50.3499 77.1163C50.542 77.2124 51.2945 77.4685 52.031 77.6607C53.1678 77.9649 53.7922 78.0289 55.7936 78.0289C58.4033 78.0289 60.0524 77.7407 61.8296 76.9562L62.7102 76.5719L64.6796 78.8615C67.0171 81.5673 67.6736 82.0156 69.2266 81.9996C70.5235 81.9996 71.4201 81.6153 72.2046 80.7347C72.9892 79.8381 73.2133 79.1497 73.1333 77.8848L73.0692 76.8761L75.5669 76.8121C77.9525 76.7641 78.0966 76.7481 79.0893 76.2677C80.4182 75.6433 81.5709 74.4905 82.1954 73.1616L82.6917 72.1209V51.1468V30.1727L82.2594 29.26C81.3788 27.3708 79.5536 25.9778 77.4562 25.5936L76.3834 25.4014L76.3354 16.9798L76.2874 8.55809L75.8231 7.70951C75.2467 6.66881 74.5102 5.99636 73.3254 5.45199L72.4448 5.03571L56.1938 5.00369C43.6574 4.98768 39.7828 5.0197 39.2064 5.17981ZM72.0926 7.90164C72.701 8.15782 73.4375 8.95836 73.6136 9.56677C73.6776 9.80693 73.7257 14.2099 73.7257 19.3654C73.7257 29.7724 73.7737 29.3241 72.6529 30.1246L72.1246 30.4929L62.422 30.5729C55.3132 30.637 52.6555 30.701 52.4953 30.8451C52.3673 30.9412 51.6628 31.8698 50.9103 32.8785C50.1578 33.8872 49.5173 34.7197 49.4693 34.7197C49.4213 34.7197 48.7808 33.8872 48.0283 32.8785C47.2758 31.8698 46.5713 30.9412 46.4433 30.8451C46.2992 30.717 45.1144 30.621 42.9209 30.5729C39.7828 30.4929 39.5906 30.4769 39.0943 30.1246C37.9736 29.3241 38.0216 29.7724 38.0216 19.3654C38.0216 14.2099 38.0696 9.80693 38.1337 9.56677C38.3098 8.97437 39.0303 8.15782 39.6227 7.90164C40.3432 7.58143 71.34 7.58143 72.0926 7.90164ZM35.3798 28.6997C35.3798 30.1566 36.6126 31.9659 38.1657 32.7824C38.9502 33.1987 39.1103 33.2147 41.9763 33.2948L44.9703 33.3748L46.5233 35.4562C48.6207 38.2741 48.7648 38.4182 49.4693 38.4182C50.1738 38.4182 50.3179 38.2741 52.4153 35.4562L53.9683 33.3748L63.3667 33.2948L72.765 33.2147L73.5816 32.7824C75.1346 31.9659 76.3674 30.1566 76.3674 28.6997C76.3674 28.0913 76.3834 28.0913 77.3921 28.3955C78.4328 28.7157 79.0893 29.26 79.6496 30.2687L80.13 31.1333V51.0667C80.13 73.626 80.226 71.9128 78.8491 73.1296C77.8404 74.0102 77.3121 74.1223 73.9498 74.1223L71.0038 74.1063L69.835 72.7454L68.6502 71.4004L69.1145 70.6319C69.771 69.5432 70.3634 68.1503 70.7957 66.6773C71.1159 65.5565 71.1639 65.0602 71.1479 62.5945C71.1479 60.0648 71.0999 59.6645 70.7476 58.4797L70.3314 57.1669L71.1959 56.3183C72.9571 54.5891 73.8057 52.5878 73.8057 50.1861C73.8057 48.409 73.5816 47.4003 72.8451 45.8632C71.7723 43.6377 70.1552 42.1647 67.8177 41.3162L66.6809 40.8999H44.506C23.4358 40.8999 22.283 40.9159 21.3704 41.1881C17.1115 42.501 14.6458 46.0714 14.934 50.4904C14.9981 51.2909 15.1422 52.2996 15.2702 52.7159C16.2149 55.6939 18.4564 57.8073 21.5465 58.5918C22.6993 58.896 23.3397 58.912 31.8254 58.912H40.8555L40.7114 59.7446C40.6474 60.2089 40.5833 61.7139 40.5993 63.0748C40.6153 65.2843 40.6634 65.7166 41.0316 66.9655C41.7521 69.319 42.7928 71.1603 44.538 73.2097L45.3385 74.1223H28.5752C16.311 74.1223 11.6358 74.0743 11.1875 73.9302C10.3389 73.674 9.37828 72.8254 8.92998 71.9128L8.56173 71.1603V51.1468V31.1333L8.94599 30.3648C9.15413 29.9485 9.58642 29.3881 9.90663 29.1159C11.0434 28.1873 10.8513 28.1873 23.6599 28.1873L35.3798 28.1713V28.6997ZM67.1132 43.99C68.1859 44.4223 69.5949 45.6551 70.1713 46.6318C71.5802 49.0654 71.3561 52.0434 69.6109 54.0127L69.0665 54.6372L68.33 53.6125C66.4087 50.9226 63.3667 48.8252 59.9404 47.8326C58.8356 47.5123 58.3233 47.4643 55.8736 47.4643C53.424 47.4643 52.9116 47.5123 51.8069 47.8326C48.1564 48.8893 45.0984 51.0828 43.065 54.1408C42.5526 54.9093 42.0883 55.6779 42.0243 55.87L41.9122 56.2062L32.1296 56.1582L22.331 56.1101L21.2903 55.5978C19.9614 54.9414 18.8567 53.8366 18.2002 52.5077C17.7199 51.5471 17.6879 51.3549 17.6879 49.8659C17.6879 48.441 17.7359 48.1688 18.1362 47.3522C19.0168 45.543 20.6339 44.2141 22.4911 43.7658C23.0995 43.6057 28.287 43.5737 44.7461 43.5897L66.2006 43.6217L67.1132 43.99ZM59.6362 50.5864C63.3186 51.7552 66.2486 54.445 67.5775 57.8553C69.5789 63.0108 68.4101 68.3104 64.4714 71.9928C60.3086 75.8835 54.1765 76.5239 49.2932 73.5459C47.2918 72.3451 45.3545 70.1676 44.3458 68.0222C42.6647 64.4037 42.8729 59.9207 44.9222 56.2062C45.8028 54.6372 48.0764 52.4437 49.7095 51.5951C52.1431 50.3623 53.3119 50.1061 56.2739 50.1701C58.0351 50.2182 58.7556 50.2982 59.6362 50.5864ZM68.7303 75.6753C70.2993 77.5006 70.4595 77.7407 70.4114 78.2531C70.3474 78.9575 69.7069 79.5019 69.0985 79.3418C68.8424 79.2778 68.0258 78.4772 66.9211 77.2124C65.9604 76.0916 65.1599 75.131 65.1759 75.0829C65.1759 74.9869 66.809 73.642 66.9211 73.658C66.9691 73.658 67.7856 74.5706 68.7303 75.6753Z" fill="#D38094"/>
<path d="M45.4986 12.817C43.7374 13.1532 41.8161 14.7223 41.0156 16.4514C40.4552 17.6682 40.3271 19.8777 40.7434 21.1426C41.3358 22.9678 42.5046 24.2487 44.2978 25.0972C45.1304 25.4815 45.4025 25.5295 46.9076 25.5295C48.4926 25.5295 48.6687 25.4975 49.6614 25.0012C51.4066 24.1526 52.5273 22.8077 53.2158 20.7583C53.2959 20.5022 53.6641 20.4861 57.7949 20.4861H62.2779V21.4148C62.2779 22.5515 62.6782 23.0479 63.5748 23.0479C64.4394 23.0479 64.8396 22.5355 64.8396 21.3988V20.4861H66.7609H68.6822V22.0552C68.6822 23.4962 68.7143 23.6563 69.0505 23.9765C69.5628 24.4568 70.4434 24.4408 70.8917 23.9605C71.228 23.6082 71.244 23.4321 71.244 21.0145C71.244 18.6129 71.228 18.4368 70.9077 18.1486C70.5875 17.8604 70.1712 17.8444 61.8616 17.7963C53.5681 17.7643 53.1518 17.7483 53.1518 17.4601C53.1518 16.8837 52.1751 15.2186 51.4066 14.5141C49.7735 12.9771 47.6921 12.3847 45.4986 12.817ZM48.4126 15.763C49.6934 16.3714 50.574 17.7483 50.59 19.1252C50.59 21.1426 48.8609 22.8878 46.8755 22.8878C46.091 22.8878 44.7461 22.3114 44.2338 21.751C43.2731 20.6943 42.9689 18.8851 43.5453 17.6843C43.9135 16.8997 44.1057 16.6756 44.8262 16.1312C45.8669 15.3467 47.2438 15.2026 48.4126 15.763Z" fill="#D38094"/>
<path d="M11.7317 29.4522C11.2834 29.6443 11.0433 30.0926 11.0433 30.7811C11.0433 31.5015 11.5876 32.0139 12.3401 32.0139C13.8932 32.0139 14.0853 29.6123 12.5643 29.3721C12.3081 29.3401 11.9239 29.3721 11.7317 29.4522Z" fill="#D38094"/>
<path d="M16.8554 29.4522C16.4071 29.6443 16.167 30.0926 16.167 30.7811C16.167 31.5015 16.7113 32.0139 17.4638 32.0139C19.0169 32.0139 19.209 29.6123 17.688 29.3721C17.4318 29.3401 17.0476 29.3721 16.8554 29.4522Z" fill="#D38094"/>
<path d="M21.9788 29.4522C21.5305 29.6443 21.2903 30.0926 21.2903 30.7811C21.2903 31.5015 21.8347 32.0139 22.5872 32.0139C24.1403 32.0139 24.3324 29.6123 22.8114 29.3721C22.5552 29.3401 22.1709 29.3721 21.9788 29.4522Z" fill="#D38094"/>
</svg>
